# xmcd
#
# Track frame offsets: 
#        150
#        10958
#        27477
#        51586
#        64256
#        79430
#        100442
#        112996
#        135673
#        152714
#        175748
#        210410
#        227980
#        243855
#
# Disc length: 3512 seconds
#
# Revision: 0
# Processed by: cddbd v1.5.2PL0 Copyright (c) Steve Scherf et al.
# Submitted via: ExactAudioCopy v1.0b3
#
DISCID=c00db60e
DTITLE=Stevie Ray Vaughan and Double Trouble - Texas Flood
DYEAR=1999
DGENRE=Blues
TTITLE0=Love Struck Baby
TTITLE1=Pride And Joy
TTITLE2=Texas Flood
TTITLE3=Tell Me
TTITLE4=Testify
TTITLE5=Rude Mood
TTITLE6=Mary Had A Little Lamb
TTITLE7=Dirty Pool
TTITLE8=I'm Cryin'
TTITLE9=Lenny
TTITLE10=Tin Pan Alley (AKA Roughest Place In Texas)
TTITLE11=Testify (Live)
TTITLE12=Mary Had A Little Lamb (Live)
TTITLE13=Wham! (Live)
EXTD=
EXTT0=
EXTT1=
EXTT2=
EXTT3=
EXTT4=
EXTT5=
EXTT6=
EXTT7=
EXTT8=
EXTT9=
EXTT10=
EXTT11=
EXTT12=
EXTT13=
PLAYORDER=
